<svg xmlns="http://www.w3.org/2000/svg" xmlns:xlink="http://www.w3.org/1999/xlink" width="150" height="147.306" viewBox="0 0 150 147.306">
  <defs>
    <linearGradient id="linear-gradient" x1="1" x2="0.15" y2="0.927" gradientUnits="objectBoundingBox">
      <stop offset="0"/>
      <stop offset="0.033" stop-color="blue" stop-opacity="0.471"/>
      <stop offset="1" stop-color="#00008b"/>
      <stop offset="1" stop-color="#545454"/>
    </linearGradient>
  </defs>
  <g id="Group_8" data-name="Group 8" transform="translate(-188 -146)">
    <rect id="Rectangle_1" data-name="Rectangle 1" width="150" height="147" transform="translate(188 146)" fill="none"/>
    <g id="mission-icon-1" transform="translate(188 147)">
      <path id="Path_1" data-name="Path 1" d="M73.153,0h.011V0A73.133,73.133,0,0,1,93.9,2.988q1.577.465,3.18,1.021a72.8,72.8,0,0,1,15.248,7.36.716.716,0,0,1,.222.986.937.937,0,0,1-.073.1l-5.234,6.711a.713.713,0,0,1-.962.153l-.012-.007q-2-1.232-4.116-2.33t-4.333-2.037h0A63.008,63.008,0,0,0,73.152,9.946h-.007v0a63.007,63.007,0,0,0-24.6,4.969q-1.853.784-3.632,1.674A63.378,63.378,0,0,0,28.458,28.459l0,0-.033.031A63.085,63.085,0,0,0,9.945,73.152v.007h0a63.007,63.007,0,0,0,4.969,24.6q.784,1.855,1.674,3.632a63.374,63.374,0,0,0,11.874,16.455l0,0,.027.028a63.1,63.1,0,0,0,44.662,18.479h.007v0a63.02,63.02,0,0,0,24.6-4.969q1.855-.784,3.632-1.674a63.357,63.357,0,0,0,16.455-11.873l.006-.006.037-.035a63.357,63.357,0,0,0,8.484-10.538,62.9,62.9,0,0,0,9.987-34.113v-.012h0a63.287,63.287,0,0,0-1.871-15.3q-.3-1.225-.638-2.375a62.961,62.961,0,0,0-4.656-11.57.711.711,0,0,1,.21-.9l6.764-5.348a.71.71,0,0,1,1,.117.542.542,0,0,1,.056.085h0l0,.01.007.015h0q1.21,2.194,2.278,4.487t1.971,4.656A72.972,72.972,0,0,1,146.3,73.154v.007h0a72.927,72.927,0,0,1-5.751,28.468q-.9,2.13-1.938,4.2a73.368,73.368,0,0,1-13.734,19.048l0,0-.027.024a73.029,73.029,0,0,1-51.7,21.4h-.007v0a72.927,72.927,0,0,1-28.468-5.751q-2.13-.9-4.2-1.94A73.384,73.384,0,0,1,21.425,124.88l0-.006-.034-.035A73.039,73.039,0,0,1,0,73.153v-.009H0a72.953,72.953,0,0,1,5.75-28.468q.9-2.13,1.94-4.2A73.377,73.377,0,0,1,21.425,21.426l0,0,.032-.028A73.05,73.05,0,0,1,73.153,0Zm40.454,19.9L134.078.336l1.364,13.192L150,15.348,128.079,36.589l-10.667.916L74.849,77.092l-3.922-3.378L111.243,31.6l2.365-11.7ZM73.153,50h.018v0a23.243,23.243,0,0,1,4.008.347c.15.027.363.067.631.122h0a22.986,22.986,0,0,1,3.148.883.71.71,0,0,1,.321,1.108h0L75.57,59.79a.712.712,0,0,1-.657.266v0l-.033,0h0l-.254-.031-.022,0L74.385,60l-.018,0c-.381-.033-.785-.051-1.213-.051h-.007v0a13.175,13.175,0,0,0-5.138,1.041c-.261.111-.515.228-.758.349a13.237,13.237,0,0,0-3.436,2.482l0,0-.033.029a13.431,13.431,0,0,0-1.748,2.18,13.147,13.147,0,0,0-2.083,7.125v.007h0A13.162,13.162,0,0,0,60.983,78.3c.111.262.228.516.349.758a13.218,13.218,0,0,0,2.482,3.435l0,.006.029.031a13.049,13.049,0,0,0,1.025.917,13.125,13.125,0,0,0,8.28,2.916h.007v0a13.135,13.135,0,0,0,5.138-1.04c.262-.111.515-.228.758-.349a13.223,13.223,0,0,0,3.435-2.483l.006-.006.024-.023c.178-.179.352-.361.511-.541s.327-.381.5-.6A13.168,13.168,0,0,0,85.51,77.83a.7.7,0,0,1,.277-.347l9.233-7.3a.71.71,0,0,1,1.147.48h0l.006.055,0,.038.029.305v.009h0l.027.332v.006c.043.586.067,1.168.067,1.747v.007h0a23.1,23.1,0,0,1-1.82,9.008c-.188.446-.394.89-.614,1.331a23.229,23.229,0,0,1-4.346,6.028l0,0-.039.033a22.913,22.913,0,0,1-3.834,3.085,23.052,23.052,0,0,1-12.493,3.658h-.007v0a23.089,23.089,0,0,1-9.006-1.82c-.446-.188-.891-.394-1.331-.614a23.253,23.253,0,0,1-6.028-4.344l0,0-.04-.044a23.234,23.234,0,0,1-3.079-3.831A23.048,23.048,0,0,1,50,73.153v-.009h0a23.109,23.109,0,0,1,1.82-9.005q.284-.668.614-1.331a23.229,23.229,0,0,1,4.344-6.025h0l0,0a23.508,23.508,0,0,1,1.853-1.661A23.092,23.092,0,0,1,73.153,50Zm1.212,10a.716.716,0,0,1-.625-.754l.625.754Zm-1.212-35.2h.012v0a48.433,48.433,0,0,1,12.5,1.633q.972.26,1.931.56a47.992,47.992,0,0,1,9.352,4.056.714.714,0,0,1,.269.972.831.831,0,0,1-.059.087l0,0-5.3,6.8a.716.716,0,0,1-.919.179l-.017-.009C90.2,38.7,89.447,38.342,88.669,38s-1.569-.663-2.357-.951a38.313,38.313,0,0,0-13.16-2.313h-.007v0a38.3,38.3,0,0,0-14.95,3.021q-1.088.461-2.207,1.019l-.056.026a38.573,38.573,0,0,0-9.944,7.187l0,0-.028.028a38.677,38.677,0,0,0-5.148,6.4A38.245,38.245,0,0,0,34.74,73.152v.007h0a38.3,38.3,0,0,0,3.021,14.95q.476,1.128,1.017,2.207a38.523,38.523,0,0,0,7.216,10l0,0a38.2,38.2,0,0,0,3.07,2.76,38.692,38.692,0,0,0,3.357,2.419,38.238,38.238,0,0,0,20.731,6.067h.007v0a38.306,38.306,0,0,0,14.951-3.02q1.128-.478,2.207-1.018a38.494,38.494,0,0,0,10-7.216l0,0a38.342,38.342,0,0,0,11.249-27.158h0v-.018h0a38.567,38.567,0,0,0-.63-6.947c-.062-.337-.135-.706-.22-1.1a38.107,38.107,0,0,0-1.591-5.439.713.713,0,0,1,.265-.839l6.913-5.466a.709.709,0,0,1,1,.117.735.735,0,0,1,.089.146h0l0,.012,0,.01h0q.54,1.225,1.038,2.546.489,1.3.9,2.616a48.341,48.341,0,0,1,2.17,14.359v.007h0a48.191,48.191,0,0,1-3.8,18.817q-.593,1.4-1.283,2.78a48.446,48.446,0,0,1-9.078,12.59l-.006,0-.027.026a48.951,48.951,0,0,1-3.84,3.447A48.248,48.248,0,0,1,73.152,121.51h-.007a48.223,48.223,0,0,1-18.818-3.8q-1.4-.6-2.78-1.283a48.521,48.521,0,0,1-12.592-9.078l0,0-.034-.037A48.279,48.279,0,0,1,24.79,73.152v-.007h0a48.225,48.225,0,0,1,3.8-18.818q.593-1.4,1.282-2.78a48.5,48.5,0,0,1,9.077-12.588h0l0,0,.032-.029a48.28,48.28,0,0,1,34.163-14.13Z" transform="translate(0 0)" fill="url(#linear-gradient)"/>
    </g>
  </g>
</svg>
