<svg xmlns="http://www.w3.org/2000/svg" xmlns:xlink="http://www.w3.org/1999/xlink" width="150" height="147" viewBox="0 0 150 147">
  <defs>
    <linearGradient id="linear-gradient" y1="1.32" x2="0.922" y2="-0.345" gradientUnits="objectBoundingBox">
      <stop offset="0"/>
      <stop offset="0.119" stop-color="#00008b"/>
      <stop offset="0.806" stop-color="blue" stop-opacity="0.467"/>
      <stop offset="1" stop-color="#545454"/>
    </linearGradient>
  </defs>
  <g id="Group_7" data-name="Group 7" transform="translate(-188 -146)">
    <rect id="Rectangle_1" data-name="Rectangle 1" width="150" height="147" transform="translate(188 146)" fill="none"/>
    <g id="vision-icon" transform="translate(177.953 116.963)">
      <g id="Group_6" data-name="Group 6" transform="translate(10.047 59.037)">
        <g id="Group_5" data-name="Group 5">
          <path id="Path_5" data-name="Path 5" d="M79.056,59.268A88.322,88.322,0,0,0,14.721,94.423c-3.751,5.022-4.9,7.184-4.641,9.091.509,3.751,10.3,15.7,18.309,22.5A89.2,89.2,0,0,0,69.52,145.408a90.99,90.99,0,0,0,34.456-.7,88.725,88.725,0,0,0,54.036-36.745c1.971-2.861,2.034-3.051,2.034-5.022,0-2.034-.064-2.225-2.034-5.022a82.577,82.577,0,0,0-10.489-12.651A86.837,86.837,0,0,0,90.69,59.331,64.615,64.615,0,0,0,79.056,59.268ZM93.741,71.855A75.717,75.717,0,0,1,138.5,93.406c3.242,3.242,8.01,8.964,8.01,9.6a14.47,14.47,0,0,1-1.78,2.543,75.956,75.956,0,0,1-26.509,21.36,74.534,74.534,0,0,1-22.059,6.929,98.445,98.445,0,0,1-22.059,0A76.708,76.708,0,0,1,31.5,112.287c-2.861-2.924-7.311-8.074-7.692-9.027-.254-.572,3.687-5.531,7.5-9.345A75.533,75.533,0,0,1,93.741,71.855Z" transform="translate(-10.047 -59.037)" fill="url(#linear-gradient)"/>
          <path id="Path_6" data-name="Path 6" d="M107.2,84.278c-9.233,1.782-17.793,8.3-21.3,16.226a27.818,27.818,0,0,0-1.954,14.813A28.431,28.431,0,0,0,100.125,135.6a33.643,33.643,0,0,0,24.937.8c9.1-3.442,16.04-11.063,17.995-19.73.539-2.4.809-8.974.337-9.4-.135-.123-1.011.307-1.954.983a18.214,18.214,0,0,1-9.705,2.7,16.563,16.563,0,0,1-8.155-1.721c-9.57-4.425-12.266-16.1-5.594-23.725l1.146-1.291-.876-.184C116.772,83.54,109.695,83.786,107.2,84.278Z" transform="translate(-38.56 -67.099)" fill="url(#linear-gradient)"/>
        </g>
      </g>
    </g>
  </g>
</svg>
